<svg viewBox="0 0 76 76" fill="none" xmlns="http://www.w3.org/2000/svg">
<path d="M38.0007 6.33325C20.5112 6.33325 6.33398 20.5104 6.33398 37.9999C6.33398 55.4894 20.5112 69.6666 38.0007 69.6666C55.4902 69.6666 69.6673 55.4894 69.6673 37.9999C69.6673 20.5104 55.4902 6.33325 38.0007 6.33325Z" fill="url(#paint0_linear_119_985)"/>
<path d="M42.2874 46.394H50.4828L51.77 38.0688H42.2874V33.5183C42.2874 30.0603 43.4179 26.9934 46.6527 26.9934H51.8508V19.7291C50.9372 19.6056 49.0055 19.3364 45.3559 19.3364C37.7338 19.3364 33.2656 23.3613 33.2656 32.5319V38.0704H25.4297V46.3956H33.264V69.2779C34.8157 69.5091 36.3879 69.6674 38.0014 69.6674C39.4596 69.6674 40.883 69.5344 42.2874 69.3444V46.394Z" fill="white"/>
<defs>
<linearGradient id="paint0_linear_119_985" x1="15.8229" y1="15.8222" x2="64.3077" y2="64.307" gradientUnits="userSpaceOnUse">
<stop stop-color="#2AA4F4"/>
<stop offset="1" stop-color="#007AD9"/>
</linearGradient>
</defs>
</svg>
