<svg viewBox="0 0 75 76" fill="none" xmlns="http://www.w3.org/2000/svg">
<path d="M53.1516 66.4844L21.9016 66.5145C15.0266 66.5208 9.39688 60.8271 9.38907 53.8605L9.35938 22.1938C9.35313 15.2271 14.9719 9.52238 21.8469 9.51446L53.0969 9.48438C59.9719 9.47805 65.6016 15.1717 65.6094 22.1384L65.6391 53.805C65.6469 60.7733 60.0266 66.4781 53.1516 66.4844Z" fill="url(#paint0_radial_119_979)"/>
<path d="M53.1516 66.4844L21.9016 66.5145C15.0266 66.5208 9.39688 60.8271 9.38907 53.8605L9.35938 22.1938C9.35313 15.2271 14.9719 9.52238 21.8469 9.51446L53.0969 9.48438C59.9719 9.47805 65.6016 15.1717 65.6094 22.1384L65.6391 53.805C65.6469 60.7733 60.0266 66.4781 53.1516 66.4844Z" fill="url(#paint1_radial_119_979)"/>
<path d="M37.5 49.0834C31.4703 49.0834 26.5625 44.1117 26.5625 38.0001C26.5625 31.8884 31.4703 26.9167 37.5 26.9167C43.5297 26.9167 48.4375 31.8884 48.4375 38.0001C48.4375 44.1117 43.5297 49.0834 37.5 49.0834ZM37.5 30.0834C33.1922 30.0834 29.6875 33.6348 29.6875 38.0001C29.6875 42.3653 33.1922 45.9167 37.5 45.9167C41.8078 45.9167 45.3125 42.3653 45.3125 38.0001C45.3125 33.6348 41.8078 30.0834 37.5 30.0834Z" fill="white"/>
<path d="M49.2188 28.5C50.5132 28.5 51.5625 27.4367 51.5625 26.125C51.5625 24.8133 50.5132 23.75 49.2188 23.75C47.9243 23.75 46.875 24.8133 46.875 26.125C46.875 27.4367 47.9243 28.5 49.2188 28.5Z" fill="white"/>
<path d="M46.875 58.5834H28.125C22.0953 58.5834 17.1875 53.6117 17.1875 47.5001V28.5001C17.1875 22.3884 22.0953 17.4167 28.125 17.4167H46.875C52.9047 17.4167 57.8125 22.3884 57.8125 28.5001V47.5001C57.8125 53.6117 52.9047 58.5834 46.875 58.5834ZM28.125 20.5834C23.8172 20.5834 20.3125 24.1348 20.3125 28.5001V47.5001C20.3125 51.8653 23.8172 55.4167 28.125 55.4167H46.875C51.1828 55.4167 54.6875 51.8653 54.6875 47.5001V28.5001C54.6875 24.1348 51.1828 20.5834 46.875 20.5834H28.125Z" fill="white"/>
<defs>
<radialGradient id="paint0_radial_119_979" cx="0" cy="0" r="1" gradientUnits="userSpaceOnUse" gradientTransform="translate(30.2813 66.5556) scale(70.1547 71.0901)">
<stop stop-color="#FFDD55"/>
<stop offset="0.328" stop-color="#FF543F"/>
<stop offset="0.348" stop-color="#FC5245"/>
<stop offset="0.504" stop-color="#E64771"/>
<stop offset="0.643" stop-color="#D53E91"/>
<stop offset="0.761" stop-color="#CC39A4"/>
<stop offset="0.841" stop-color="#C837AB"/>
</radialGradient>
<radialGradient id="paint1_radial_119_979" cx="0" cy="0" r="1" gradientUnits="userSpaceOnUse" gradientTransform="translate(18.4156 8.77236) scale(46.5828 31.452)">
<stop stop-color="#4168C9"/>
<stop offset="0.999" stop-color="#4168C9" stop-opacity="0"/>
</radialGradient>
</defs>
</svg>
