<svg viewBox="0 0 76 76" fill="none" xmlns="http://www.w3.org/2000/svg">
<path fill-rule="evenodd" clip-rule="evenodd" d="M17.2647 9.5H58.7338C63.023 9.5 66.5 12.977 66.5 17.2647V58.7338C66.5 63.023 63.023 66.5 58.7353 66.5H17.2647C12.977 66.5 9.5 63.023 9.5 58.7353V17.2647C9.5 12.977 12.977 9.5 17.2647 9.5Z" fill="#212121"/>
<path fill-rule="evenodd" clip-rule="evenodd" d="M46.2474 32.6273C48.7428 34.4102 51.8002 35.4583 55.1014 35.4583V29.1076C54.476 29.1076 53.8538 29.0427 53.2426 28.9128V33.9114C49.9413 33.9114 46.8855 32.8617 44.3886 31.0804V44.0384C44.3886 50.5206 39.1303 55.7757 32.645 55.7757C30.2257 55.7757 27.9758 55.0442 26.1074 53.7902C28.2402 55.9688 31.2137 57.321 34.5038 57.321C40.9892 57.321 46.2474 52.0659 46.2474 45.5838V32.6273ZM48.5417 26.2212C47.2671 24.8294 46.4295 23.0292 46.2474 21.0389V20.2219H44.4852C44.9285 22.7505 46.4422 24.9118 48.5417 26.2212ZM30.2098 48.8169C29.4973 47.8828 29.1126 46.7412 29.1142 45.5663C29.1142 42.6008 31.5193 40.1973 34.4864 40.1973C35.039 40.1973 35.5884 40.2812 36.1157 40.449V33.9573C35.4998 33.8734 34.8791 33.837 34.2568 33.8497V38.9021C33.7296 38.7343 33.1802 38.6503 32.626 38.6503C29.6588 38.6503 27.2538 41.0538 27.2538 44.0194C27.2553 46.1173 28.4571 47.9334 30.2098 48.8169Z" fill="#EC407A"/>
<path fill-rule="evenodd" clip-rule="evenodd" d="M44.3888 31.0804C46.8842 32.8633 49.9416 33.9114 53.2428 33.9114V28.9128C51.3998 28.5202 49.769 27.5575 48.5419 26.2196C46.4424 24.9102 44.9303 22.7505 44.487 20.2219H39.8589V45.5838C39.8478 48.5398 37.4475 50.9338 34.4867 50.9338C32.7418 50.9338 31.1918 50.1026 30.2101 48.8153C28.4573 47.9318 27.2556 46.1158 27.2556 44.0194C27.2556 41.0538 29.6607 38.6503 32.6278 38.6503C33.1963 38.6503 33.7441 38.739 34.2587 38.9021V33.8513C27.8873 33.9827 22.7637 39.1855 22.7637 45.5853C22.7637 48.7805 24.0398 51.6764 26.1108 53.7918C27.9792 55.0458 30.2291 55.7773 32.6484 55.7773C39.1338 55.7773 44.392 50.5222 44.392 44.04L44.3888 31.0804Z" fill="white"/>
<path fill-rule="evenodd" clip-rule="evenodd" d="M53.2396 28.9147V27.5625C51.5771 27.5657 49.9494 27.1002 48.5387 26.2199C49.7864 27.5863 51.4298 28.5284 53.2396 28.9147ZM44.4822 20.2222C44.4394 19.98 44.4078 19.7377 44.3856 19.4923V18.6753H37.9953V44.0387C37.9858 46.9948 35.5839 49.3888 32.623 49.3888C31.7538 49.3888 30.9336 49.183 30.2069 48.8156C31.1885 50.1029 32.7386 50.9341 34.4834 50.9341C37.4443 50.9341 39.8446 48.5401 39.8557 45.584V20.2222H44.4822ZM34.2539 33.8515V32.4123C33.7203 32.3395 33.1819 32.303 32.642 32.303C26.1551 32.303 20.8984 37.5581 20.8984 44.0403C20.8984 48.1047 22.9647 51.6862 26.1044 53.792C24.0334 51.6767 22.7573 48.7808 22.7573 45.5856C22.7573 39.1858 27.8825 33.983 34.2539 33.8515Z" fill="#81D4FA"/>
</svg>
