<svg viewBox="0 0 29 23" fill="none" xmlns="http://www.w3.org/2000/svg">
<path d="M1.53976 10.5051C1.49059 10.3117 1.48698 10.1098 1.52919 9.91479C1.57141 9.71977 1.65834 9.53676 1.78339 9.37963C1.90844 9.22251 2.06832 9.0954 2.2509 9.00796C2.43348 8.92053 2.63396 8.87506 2.83712 8.875H26.1629C26.366 8.87506 26.5665 8.92053 26.7491 9.00796C26.9317 9.0954 27.0916 9.22251 27.2166 9.37963C27.3417 9.53676 27.4286 9.71977 27.4708 9.91479C27.513 10.1098 27.5094 10.3117 27.4602 10.5051L25.0381 20.0116C24.8934 20.5795 24.5595 21.0836 24.0893 21.4439C23.6192 21.8042 23.0398 21.9999 22.4433 22H6.55667C5.96016 21.9999 5.3808 21.8042 4.91066 21.4439C4.44053 21.0836 4.1066 20.5795 3.96194 20.0116L1.53976 10.5064V10.5051Z" stroke="#0E204B" stroke-width="2" stroke-linejoin="round"/>
<path d="M10.4863 14.1248V16.7498V14.1248Z" fill="#0E204B"/>
<path d="M10.4863 14.1248V16.7498" stroke="#0E204B" stroke-width="2" stroke-linecap="round"/>
<path d="M18.5117 14.1248V16.7498V14.1248Z" fill="#0E204B"/>
<path d="M18.5117 14.1248V16.7498" stroke="#0E204B" stroke-width="2" stroke-linecap="round"/>
<path d="M6.47421 8.87502L11.8242 1L6.47421 8.87502Z" fill="#0E204B"/>
<path d="M6.47421 8.87502L11.8242 1" stroke="#0E204B" stroke-width="2" stroke-linecap="round"/>
<path d="M22.5221 8.87502L17.1721 1L22.5221 8.87502Z" fill="#0E204B"/>
<path d="M22.5221 8.87502L17.1721 1" stroke="#0E204B" stroke-width="2" stroke-linecap="round"/>
</svg>
