<svg viewBox="0 0 75 75" fill="none" xmlns="http://www.w3.org/2000/svg">
<path d="M51.5664 48.1266C50.8205 48.1266 50.1051 48.423 49.5777 48.9504C49.0502 49.4779 48.7539 50.1932 48.7539 50.9391C48.7539 51.6851 49.0502 52.4004 49.5777 52.9279C50.1051 53.4553 50.8205 53.7517 51.5664 53.7517H60.9414C61.6873 53.7517 62.4027 53.4553 62.9301 52.9279C63.4576 52.4004 63.7539 51.6851 63.7539 50.9391C63.7539 50.1932 63.4576 49.4779 62.9301 48.9504C62.4027 48.423 61.6873 48.1266 60.9414 48.1266H51.5664Z" fill="#F24E1E"/>
<path d="M10.3125 12.5C7.57746 12.5 4.95443 13.5865 3.02046 15.5205C1.08649 17.4544 0 20.0775 0 22.8125V54.6875C0 57.4226 1.08649 60.0456 3.02046 61.9795C4.95443 63.9135 7.57746 65 10.3125 65H64.6875C67.4225 65 70.0456 63.9135 71.9795 61.9795C73.9135 60.0456 75 57.4226 75 54.6875V22.8125C75 20.0775 73.9135 17.4544 71.9795 15.5205C70.0456 13.5865 67.4225 12.5 64.6875 12.5H10.3125ZM5.625 54.6875V35H69.375V54.6875C69.375 57.275 67.275 59.375 64.6875 59.375H10.3125C7.725 59.375 5.625 57.275 5.625 54.6875ZM5.625 29.375V22.8125C5.625 20.225 7.725 18.125 10.3125 18.125H64.6875C67.275 18.125 69.375 20.225 69.375 22.8125V29.375H5.625Z" fill="#F24E1E"/>
</svg>
