<svg viewBox="0 0 59 49" fill="none" xmlns="http://www.w3.org/2000/svg">
<path d="M2.0841 22.7455C1.98009 22.3309 1.97245 21.8983 2.06175 21.4804C2.15105 21.0625 2.33494 20.6704 2.59947 20.3337C2.864 19.997 3.20221 19.7246 3.58844 19.5372C3.97466 19.3499 4.39875 19.2524 4.82852 19.2523H54.1715C54.6012 19.2524 55.0253 19.3499 55.4116 19.5372C55.7978 19.7246 56.136 19.997 56.4005 20.3337C56.6651 20.6704 56.849 21.0625 56.9383 21.4804C57.0276 21.8983 57.0199 22.3309 56.9159 22.7455L51.792 43.1165C51.486 44.3334 50.7797 45.4137 49.7851 46.1858C48.7906 46.9578 47.565 47.3772 46.3032 47.3774H12.6968C11.435 47.3772 10.2094 46.9578 9.21486 46.1858C8.22035 45.4137 7.51395 44.3334 7.20796 43.1165L2.0841 22.7483V22.7455Z" stroke="white" stroke-width="3" stroke-linejoin="round"/>
<path d="M21.0098 30.5026V36.1276" stroke="white" stroke-width="3" stroke-linecap="round"/>
<path d="M37.9863 30.5026V36.1276" stroke="white" stroke-width="3" stroke-linecap="round"/>
<path d="M12.5215 19.2525L23.8387 2.37744" stroke="white" stroke-width="3" stroke-linecap="round"/>
<path d="M46.4715 19.2525L35.1543 2.37744" stroke="white" stroke-width="3" stroke-linecap="round"/>
</svg>
