<svg viewBox="0 0 66 66" fill="none" xmlns="http://www.w3.org/2000/svg">
<path fill-rule="evenodd" clip-rule="evenodd" d="M45.2422 61.8984C49.5934 61.8984 53.7664 60.1699 56.8432 57.0932C59.9199 54.0164 61.6484 49.8434 61.6484 45.4922C61.6484 41.141 59.9199 36.968 56.8432 33.8912C53.7664 30.8144 49.5934 29.0859 45.2422 29.0859C40.891 29.0859 36.718 30.8144 33.6412 33.8912C30.5644 36.968 28.8359 41.141 28.8359 45.4922C28.8359 49.8434 30.5644 54.0164 33.6412 57.0932C36.718 60.1699 40.891 61.8984 45.2422 61.8984ZM65.75 45.4922C65.75 50.9312 63.5894 56.1474 59.7434 59.9934C55.8974 63.8394 50.6812 66 45.2422 66C39.8032 66 34.5869 63.8394 30.741 59.9934C26.895 56.1474 24.7344 50.9312 24.7344 45.4922C24.7344 40.0532 26.895 34.8369 30.741 30.991C34.5869 27.145 39.8032 24.9844 45.2422 24.9844C50.6812 24.9844 55.8974 27.145 59.7434 30.991C63.5894 34.8369 65.75 40.0532 65.75 45.4922Z" fill="#F24E1E"/>
<path d="M38.8381 49.3641C39.0309 51.8086 40.9627 53.7117 44.4285 53.9414V55.7461H45.9666V53.9291C49.5555 53.6789 51.6514 51.7594 51.6514 48.9785C51.6514 46.4438 50.0518 45.1395 47.1807 44.4668L45.9666 44.1797V39.2578C47.5088 39.4342 48.485 40.275 48.7187 41.4398H51.4176C51.2248 39.0814 49.2027 37.2398 45.9666 37.0389V35.2383H44.4285V37.084C41.3646 37.3834 39.2811 39.225 39.2811 41.8336C39.2811 44.1387 40.8314 45.607 43.4113 46.2059L44.4285 46.4561V51.6732C42.8535 51.4354 41.8076 50.5658 41.5738 49.3641H38.834H38.8381ZM44.4162 43.8105C42.9027 43.4619 42.0824 42.7441 42.0824 41.6695C42.0824 40.4637 42.9684 39.5613 44.4285 39.2988V43.8105H44.4162ZM46.1881 46.8703C48.0297 47.2969 48.8746 47.9859 48.8746 49.2041C48.8746 50.5945 47.8205 51.5461 45.9666 51.7225V46.8211L46.1881 46.8703Z" fill="#F24E1E"/>
<path d="M4.22656 0.375C3.13876 0.375 2.09551 0.807128 1.32632 1.57632C0.557128 2.34551 0.125 3.38876 0.125 4.47656L0.125 37.2891C0.125 38.3769 0.557128 39.4201 1.32632 40.1893C2.09551 40.9585 3.13876 41.3906 4.22656 41.3906H20.9732C21.2111 39.9797 21.568 38.6098 22.0314 37.2891H12.4297C12.4297 35.1135 11.5654 33.027 10.027 31.4886C8.48866 29.9502 6.40217 29.0859 4.22656 29.0859V12.6797C6.40217 12.6797 8.48866 11.8154 10.027 10.277C11.5654 8.73866 12.4297 6.65217 12.4297 4.47656H53.4453C53.4453 6.65217 54.3096 8.73866 55.848 10.277C57.3863 11.8154 59.4728 12.6797 61.6484 12.6797V27.15C63.207 28.5445 64.5893 30.1359 65.75 31.8832V4.47656C65.75 3.38876 65.3179 2.34551 64.5487 1.57632C63.7795 0.807128 62.7362 0.375 61.6484 0.375L4.22656 0.375Z" fill="#F24E1E"/>
<path d="M41.1324 21.2239L41.1406 20.8835C41.1398 19.4709 40.7742 18.0824 40.0792 16.8526C39.3842 15.6228 38.3834 14.5932 37.1738 13.8637C35.9641 13.1342 34.5865 12.7295 33.1745 12.6887C31.7625 12.6479 30.3638 12.9724 29.1141 13.6308C27.8643 14.2892 26.8057 15.2592 26.0408 16.4468C25.276 17.6345 24.8308 18.9995 24.7484 20.4097C24.6659 21.8199 24.9491 23.2275 25.5703 24.4961C26.1916 25.7648 27.13 26.8515 28.2945 27.6511C31.8373 24.2766 36.308 22.0384 41.1324 21.2239Z" fill="#F24E1E"/>
</svg>
