<svg viewBox="0 0 35 35" fill="#fff" xmlns="http://www.w3.org/2000/svg">
<path d="M27.6267 7.5849C22.0428 1.84149 12.9572 1.84149 7.37333 7.5849C1.78946 13.3283 1.78946 22.6735 7.37333 28.4169C10.1653 31.2887 13.8327 32.7245 17.5 32.7245C21.1674 32.7245 24.8348 31.2887 27.6267 28.4169C33.2106 22.6735 33.2106 13.3283 27.6267 7.5849ZM26.66 27.4226C21.6092 32.6178 13.3909 32.6178 8.34013 27.4226C3.28933 22.2275 3.28933 13.7744 8.34013 8.57933C10.8655 5.9817 14.1827 4.68289 17.5 4.68289C20.8173 4.68289 24.1346 5.9817 26.66 8.57926C31.7108 13.7744 31.7108 22.2275 26.66 27.4226Z" fill="white"/>
<path d="M22.1872 13.1794C21.9203 12.9048 21.4874 12.9048 21.2204 13.1794L17.5003 17.0057L13.7802 13.1793C13.5133 12.9047 13.0804 12.9047 12.8134 13.1793C12.5464 13.4539 12.5464 13.8991 12.8134 14.1737L16.5335 18.0002L12.8134 21.8266C12.5464 22.1011 12.5464 22.5464 12.8134 22.821C12.9469 22.9583 13.1218 23.0269 13.2968 23.0269C13.4717 23.0269 13.6467 22.9583 13.7801 22.821L17.5002 18.9946L21.2204 22.821C21.3539 22.9583 21.5288 23.0269 21.7037 23.0269C21.8787 23.0269 22.0537 22.9583 22.1871 22.821C22.454 22.5464 22.454 22.1012 22.1871 21.8266L18.4671 18.0002L22.1872 14.1737C22.4542 13.8992 22.4542 13.454 22.1872 13.1794Z" fill="white"/>
</svg>
