<svg viewBox="0 0 19 24" fill="none" xmlns="http://www.w3.org/2000/svg">
<path d="M0.733333 8.32H1.57687L2.65298 23.4737C2.67091 23.7252 2.88143 23.92 3.13513 23.92H15.8651C16.1188 23.92 16.3293 23.7252 16.3473 23.4737L17.4234 8.32H18.2669C18.5338 8.32 18.7502 8.10508 18.7502 7.84V5.4093C18.7502 4.48797 17.9953 3.7382 17.0675 3.7382H13.5322V1.36C13.5322 1.09492 13.3158 0.879999 13.0489 0.879999H5.95159C5.68467 0.879999 5.46825 1.09492 5.46825 1.36V3.7382H1.9327C1.00497 3.7382 0.25 4.48797 0.25 5.4093V7.84C0.25 8.10508 0.466414 8.32 0.733333 8.32ZM15.4146 22.96H3.58566L2.54607 8.32H16.4542L15.4146 22.96ZM6.43492 1.84H12.5656V3.7382H6.43492V1.84ZM1.21667 5.4093C1.21667 5.01719 1.53787 4.6982 1.9327 4.6982H5.95159H13.0489H17.0675C17.4624 4.6982 17.7836 5.01719 17.7836 5.4093V7.36H16.9729H2.02734H1.21667V5.4093Z" fill="white"/>
</svg>
