<svg viewBox="0 0 250 146" fill="none" xmlns="http://www.w3.org/2000/svg">
<path d="M33.9116 0.5C31.7704 0.5 29.9726 2.29643 29.9726 4.43619V19.2649H2.03408C1.85234 19.2356 1.66618 19.2356 1.48447 19.2649C0.573179 19.4087 -0.125041 20.368 0.0188531 21.2786C0.162777 22.1893 1.12279 22.887 2.03408 22.7432H29.9726V43.5218H8.99606C8.96558 43.521 8.93509 43.521 8.90461 43.5218C7.96928 43.5453 7.14021 44.4179 7.16419 45.3525C7.18763 46.2872 8.06091 47.1157 8.99621 47.0917H29.9727V67.8703H17.1486H16.7822C15.9383 68.0461 15.3179 68.9359 15.4081 69.7924C15.4984 70.6492 16.2866 71.3525 17.1486 71.3487H29.9727V98.7175C29.9727 100.857 31.7704 102.654 33.9117 102.654H57.0867C56.2501 104.051 55.4768 105.507 54.8883 107.047H38.7664H38.4C37.6197 107.223 37.0151 107.987 37.026 108.786V123.981C37.0348 124.889 37.8578 125.711 38.7664 125.72H54.4304C58.0751 137.163 68.7378 145.492 81.3611 145.492C93.9845 145.492 104.647 137.163 108.292 125.72H173.421C177.089 137.163 187.82 145.492 200.444 145.492C213.067 145.492 223.73 137.163 227.374 125.72H248.259C249.168 125.72 249.99 124.889 250 123.981V77.4813C250.006 77.0882 249.874 76.6943 249.633 76.3829C239.882 63.1076 220.069 35.4455 207.312 18.5328C206.981 18.0715 206.415 17.7886 205.847 17.8005H205.572H163.526C163.405 17.7888 163.281 17.7888 163.16 17.8005C163.099 17.7976 163.038 17.7976 162.977 17.8005C162.23 18.0102 161.673 18.7645 161.694 19.5396L161.877 107.047H107.831C107.243 105.506 106.469 104.051 105.633 102.653H154.549C156.69 102.653 158.397 100.857 158.397 98.7173V4.43762C158.397 2.29801 156.69 0.50143 154.549 0.50143H33.9113L33.9116 0.5ZM33.9116 4.07005H154.55C154.803 4.07005 154.916 4.18311 154.916 4.43619V98.7159C154.916 98.9707 154.803 99.082 154.55 99.082H103.162C97.9691 92.7979 90.1491 88.8301 81.361 88.8301C72.5729 88.8301 64.7529 92.7979 59.5599 99.082H33.9116C33.6583 99.082 33.4536 98.9707 33.4536 98.7159V4.43619C33.4536 4.18311 33.6582 4.07005 33.9116 4.07005ZM91.0707 17.4342C79.4431 17.4342 70.0025 26.868 70.0025 38.4872C70.0025 50.1065 79.4431 59.632 91.0707 59.632C102.698 59.632 112.231 50.1065 112.231 38.4872C112.231 26.868 102.698 17.4342 91.0707 17.4342ZM91.0707 21.0042C100.797 21.0042 108.658 28.7679 108.658 38.4876C108.658 48.2073 100.797 56.0623 91.0707 56.0623C81.344 56.0623 73.5748 48.2073 73.5748 38.4876C73.5748 28.7679 81.344 21.0042 91.0707 21.0042ZM165.266 21.2786H204.929C217.561 38.0599 236.777 64.8552 246.517 78.1212V122.24H228.288C228.595 120.569 228.746 118.873 228.746 117.114C228.746 101.473 216.065 88.8295 200.442 88.8295C184.819 88.8295 172.045 101.473 172.045 117.114C172.045 118.873 172.195 120.569 172.503 122.24H109.206C109.513 120.569 109.664 118.873 109.664 117.114C109.664 114.83 109.35 112.649 108.84 110.523H163.619C164.528 110.523 165.35 109.692 165.359 108.784L165.268 21.2767L165.266 21.2786ZM90.2441 24.2078C90.1814 24.2341 90.1201 24.2651 90.0609 24.2991C89.3473 24.5416 88.8379 25.2857 88.8701 26.0383V40.7752C88.8789 41.6832 89.7019 42.5049 90.6105 42.5144H98.3965C99.392 42.6597 100.412 41.7806 100.412 40.7752C100.412 39.7699 99.392 38.8907 98.3965 39.0361H92.3508V26.0381C92.417 24.9659 91.2974 23.9929 90.244 24.2074L90.2441 24.2078ZM81.359 92.3098C95.083 92.3098 106.183 103.376 106.183 117.116C106.183 130.855 95.083 142.013 81.359 142.013C67.6349 142.013 56.5349 130.855 56.5349 117.116C56.5349 103.376 67.6349 92.3098 81.359 92.3098ZM200.441 92.3098C214.165 92.3098 225.173 103.376 225.173 117.116C225.173 130.855 214.165 142.013 200.441 142.013C186.716 142.013 175.616 130.855 175.616 117.116C175.616 103.376 186.716 92.3098 200.441 92.3098ZM81.359 100.182C72.1417 100.182 64.6875 107.778 64.6875 117.116C64.6875 126.453 72.1417 134.05 81.359 134.05C90.5762 134.05 98.1221 126.453 98.1221 117.116C98.1221 107.778 90.5762 100.182 81.359 100.182ZM200.441 100.182C191.223 100.182 183.677 107.778 183.677 117.116C183.677 126.453 191.223 134.05 200.441 134.05C209.658 134.05 217.112 126.453 217.112 117.116C217.112 107.778 209.658 100.182 200.441 100.182ZM81.359 103.752C88.6882 103.752 94.641 109.691 94.641 117.116C94.641 124.54 88.6879 130.571 81.359 130.571C74.0297 130.571 68.1684 124.54 68.1684 117.116C68.1684 109.691 74.0297 103.752 81.359 103.752ZM200.441 103.752C207.77 103.752 213.631 109.691 213.631 117.116C213.631 124.54 207.77 130.571 200.441 130.571C193.111 130.571 187.158 124.54 187.158 117.116C187.158 109.691 193.112 103.752 200.441 103.752ZM40.5972 110.525H53.8792C53.3688 112.651 53.0548 114.832 53.0548 117.116C53.0548 118.875 53.206 120.571 53.5128 122.242H40.5972V110.525Z" fill="#FC5455"/>
</svg>
