<svg viewBox="0 0 29 36" fill="none" xmlns="http://www.w3.org/2000/svg">
<path d="M22.083 2.17084L19.131 5.10244L9.08858 15.0744C9.01555 15.1482 8.96814 15.2432 8.95325 15.3456L8.38775 19.2756C8.37781 19.3442 8.38292 19.414 8.40272 19.4804C8.42251 19.5468 8.45654 19.6081 8.50245 19.6602C8.54836 19.7123 8.60508 19.7539 8.66871 19.7822C8.73234 19.8105 8.80137 19.8248 8.87108 19.824C8.8908 19.8253 8.91057 19.8253 8.93029 19.824L12.954 19.3284C13.061 19.3154 13.1605 19.2673 13.2368 19.1916L23.2768 9.22084L26.2215 6.28324C26.3119 6.19344 26.3627 6.07177 26.3629 5.94484C26.363 5.88179 26.3505 5.81935 26.3262 5.76108C26.302 5.70281 26.2664 5.64985 26.2215 5.60524L22.7681 2.17084C22.7232 2.12604 22.6698 2.09048 22.611 2.06622C22.5523 2.04195 22.4892 2.02946 22.4256 2.02946C22.3619 2.02946 22.2989 2.04195 22.2401 2.06622C22.1813 2.09048 22.1279 2.12604 22.083 2.17084ZM12.6652 18.3924L9.43417 18.7908L9.88729 15.6396L19.4718 6.12004L22.251 8.88004L12.6652 18.3924ZM22.9361 8.19244L20.1569 5.43244L22.4274 3.17884L25.2065 5.93884L22.9361 8.19244Z" fill="white"/>
<path d="M3.11615 26.7702H23.5068C23.635 26.7702 23.7579 26.7196 23.8485 26.6296C23.9392 26.5396 23.9901 26.4175 23.9901 26.2902V17.4822C23.9901 17.3549 23.9392 17.2328 23.8485 17.1428C23.7579 17.0527 23.635 17.0022 23.5068 17.0022C23.3786 17.0022 23.2556 17.0527 23.165 17.1428C23.0744 17.2328 23.0234 17.3549 23.0234 17.4822V25.8102H3.59948V6.54057H10.2272C10.3554 6.54057 10.4783 6.49 10.569 6.39998C10.6596 6.30996 10.7105 6.18787 10.7105 6.06057C10.7105 5.93327 10.6596 5.81118 10.569 5.72116C10.4783 5.63114 10.3554 5.58057 10.2272 5.58057H3.11615C2.98796 5.58057 2.86502 5.63114 2.77438 5.72116C2.68374 5.81118 2.63281 5.93327 2.63281 6.06057V26.2902C2.63281 26.4175 2.68374 26.5396 2.77438 26.6296C2.86502 26.7196 2.98796 26.7702 3.11615 26.7702Z" fill="white"/>
</svg>
