<svg viewBox="0 0 250 250" fill="none" xmlns="http://www.w3.org/2000/svg">
<path d="M125 47C87.5047 47 57 77.9531 57 116C57 154.046 87.5047 185 125 185C162.495 185 193 154.046 193 116C193 77.9531 162.495 47 125 47ZM125 180.034C90.2031 180.034 61.8937 151.308 61.8937 116C61.8937 80.6916 90.2031 51.9663 125 51.9663C159.797 51.9663 188.106 80.6916 188.106 116C188.106 151.308 159.797 180.034 125 180.034Z" fill="#F54748"/>
<path d="M99.6801 90C100.328 90.0006 100.954 89.7493 101.441 89.293C102.234 88.5526 103.066 87.8355 103.917 87.1624C104.487 86.7103 104.866 86.0344 104.971 85.2834C105.075 84.5325 104.896 83.7679 104.473 83.158C104.05 82.5481 103.418 82.1427 102.716 82.0311C102.013 81.9195 101.298 82.1108 100.727 82.5629C99.7618 83.3262 98.8164 84.1415 97.9153 84.9826C97.505 85.366 97.2139 85.8742 97.0809 86.4391C96.948 87.004 96.9794 87.5989 97.1711 88.1442C97.3627 88.6895 97.7055 89.1594 98.1536 89.491C98.6017 89.8226 99.1337 90.0002 99.6787 90H99.6801Z" fill="#F54748"/>
<path d="M96.5057 90.5145C95.9625 90.1125 95.2761 89.9351 94.5973 90.0213C93.9186 90.1076 93.3032 90.4505 92.8864 90.9745C86.0861 99.54 83.0018 110.32 84.2848 121.039C85.5677 131.757 91.1175 141.575 99.7622 148.42C100.024 148.631 100.326 148.79 100.652 148.888C100.977 148.985 101.319 149.02 101.659 148.989C101.998 148.959 102.328 148.863 102.629 148.709C102.93 148.555 103.197 148.344 103.413 148.09C103.63 147.836 103.792 147.543 103.89 147.228C103.989 146.913 104.021 146.583 103.987 146.255C103.952 145.928 103.85 145.611 103.688 145.321C103.525 145.032 103.305 144.777 103.039 144.571C95.4297 138.547 90.544 129.905 89.4138 120.47C88.2836 111.036 90.9975 101.547 96.9824 94.0067C97.3991 93.4826 97.5829 92.8202 97.4935 92.1653C97.4041 91.5105 97.0488 90.9166 96.5057 90.5145Z" fill="#F54748"/>
<path d="M94.4646 108.018C93.0854 114.854 94.8005 122.278 99.293 128.921C104.332 136.371 112.653 142.515 123.357 146.688C123.406 146.707 123.455 146.724 123.505 146.74C124.473 147.087 125.536 147.087 126.503 146.74C126.547 146.726 126.59 146.711 126.634 146.694C150.142 137.72 158.093 120.806 155.545 108.028C153.745 98.899 146.948 93 138.227 93C133.894 93 129.445 94.4648 124.982 97.3577C120.576 94.5915 116.065 93.1376 111.852 93.1376C103.185 93.1376 96.3617 98.971 94.4684 108.001L94.4646 108.018ZM99.3587 108.951C100.783 102.174 105.57 97.9648 111.852 97.9648C115.484 97.9648 119.527 99.4481 123.544 102.254C123.974 102.554 124.491 102.713 125.02 102.71C125.549 102.707 126.064 102.54 126.489 102.235C130.507 99.3515 134.566 97.8272 138.227 97.8272C144.537 97.8272 149.295 102.082 150.646 108.938C152.797 119.726 145.697 134.151 125.006 142.128C104.316 133.982 97.2126 119.614 99.3587 108.952V108.951Z" fill="#F54748"/>
<path d="M126.826 65.0252C100.61 64.2187 78.5385 82.8553 74.1661 107.078C74.1072 107.393 74.1126 107.717 74.1818 108.031C74.251 108.344 74.3827 108.641 74.5693 108.904C74.7559 109.167 74.9936 109.391 75.2687 109.563C75.5439 109.734 75.8509 109.851 76.1721 109.905C76.4932 109.959 76.8221 109.95 77.1396 109.878C77.4572 109.806 77.7571 109.673 78.022 109.486C78.2868 109.299 78.5114 109.063 78.6827 108.79C78.8539 108.517 78.9684 108.213 79.0196 107.896C80.9584 97.1899 86.6764 87.5016 95.1646 80.5413C103.653 73.581 114.365 69.796 125.412 69.8542C150.328 69.9687 170.972 89.5304 172.027 114.037C173.161 140.39 151.712 162.129 125.189 162.129C114.049 162.124 103.274 158.215 94.7943 151.103C86.3145 143.991 80.6829 134.139 78.9078 123.313C78.8185 122.74 78.5244 122.218 78.0786 121.839C77.6328 121.461 77.0645 121.252 76.476 121.25H76.4628C76.1061 121.25 75.7538 121.327 75.4301 121.474C75.1063 121.621 74.819 121.836 74.5878 122.104C74.3566 122.371 74.1872 122.685 74.0911 123.023C73.995 123.361 73.9746 123.716 74.0314 124.062C75.9648 136.045 82.1806 146.955 91.5593 154.827C100.938 162.699 112.864 167.016 125.188 167C154.171 167 177.671 143.454 176.985 114.776C176.34 87.8211 154.2 65.8669 126.826 65.0252Z" fill="#F54748"/>
<path d="M222.599 42.3073C221.963 42.3073 221.352 42.5657 220.902 43.0255C220.452 43.4854 220.199 44.1091 220.199 44.7594V73.032H211.4V44.4521C211.4 43.8017 211.147 43.178 210.697 42.7182C210.247 42.2583 209.636 42 209 42C208.363 42 207.753 42.2583 207.303 42.7182C206.852 43.178 206.6 43.8017 206.6 44.4521V73.032H197.8V44.7594C197.8 44.1091 197.547 43.4854 197.097 43.0255C196.647 42.5657 196.036 42.3073 195.4 42.3073C194.763 42.3073 194.153 42.5657 193.703 43.0255C193.253 43.4854 193 44.1091 193 44.7594V75.7615C192.999 78.0876 193.483 80.3872 194.419 82.5076C195.355 84.6279 196.722 86.5204 198.429 88.0594C199.738 89.2348 200.787 90.6816 201.506 92.3034C202.225 93.9253 202.598 95.685 202.6 97.4655V136.377H199.475C198.815 136.411 198.192 136.7 197.732 137.185C197.273 137.671 197.011 138.317 197 138.992V181.6C197.02 184.891 198.312 188.041 200.594 190.364C202.877 192.686 205.965 193.993 209.187 194H209.749C211.353 193.997 212.94 193.669 214.418 193.036C215.897 192.403 217.238 191.476 218.364 190.31C219.491 189.143 220.379 187.761 220.979 186.241C221.579 184.722 221.878 183.096 221.859 181.458L221.299 138.881C221.294 138.227 221.041 137.601 220.593 137.134C220.146 136.667 219.539 136.396 218.899 136.377H215.399V97.7912C215.403 95.9486 215.79 94.1278 216.534 92.4498C217.279 90.7717 218.365 89.2747 219.719 88.0582C221.402 86.5079 222.743 84.6098 223.653 82.4898C224.563 80.3699 225.022 78.0764 224.999 75.7615V44.7594C224.999 44.1091 224.746 43.4854 224.296 43.0255C223.846 42.5657 223.236 42.3073 222.599 42.3073ZM217.06 181.45C217.074 182.45 216.895 183.443 216.533 184.372C216.171 185.301 215.633 186.148 214.949 186.863C214.272 187.57 213.463 188.132 212.57 188.516C211.677 188.899 210.718 189.096 209.75 189.096H209.187C207.238 189.091 205.37 188.301 203.987 186.898C202.604 185.494 201.818 183.591 201.8 181.6V154.767H216.708L217.06 181.45ZM216.53 141.281L216.643 149.863H201.8V141.281H216.53ZM216.536 84.3045C214.672 85.9978 213.18 88.0748 212.156 90.399C211.133 92.7233 210.603 95.2423 210.6 97.7908V136.377H207.4V97.4655C207.398 94.9785 206.882 92.5199 205.885 90.2513C204.887 87.9828 203.431 85.9557 201.611 84.3033C199.768 82.6394 198.512 80.4019 198.037 77.9361H219.98C219.552 80.3892 218.341 82.6285 216.536 84.3045Z" fill="#F54748"/>
<path d="M51.8822 136.228H48.0993V97.5425C48.0696 95.732 48.4357 93.9367 49.1723 92.2804C49.9089 90.6241 50.9986 89.1463 52.3661 87.949C54.1583 86.3948 55.5899 84.473 56.5623 82.3163C57.5348 80.1595 58.0249 77.8189 57.999 75.4559V58.3893C57.999 54.0426 56.2607 49.8739 53.1664 46.8003C50.0722 43.7267 45.8755 42 41.4995 42C37.1236 42 32.9269 43.7267 29.8326 46.8003C26.7383 49.8739 25 54.0426 25 58.3893V75.4559C24.9984 77.8263 25.5133 80.169 26.5094 82.3231C27.5056 84.4771 28.9593 86.3915 30.7707 87.9347C32.0929 89.0937 33.1466 90.5236 33.8594 92.1257C34.5721 93.7279 34.9271 95.4645 34.8997 97.2159V136.228H31.8518C30.4861 136.228 29.5374 137.492 29.5374 138.85V181.568C29.5209 183.189 29.8272 184.798 30.4387 186.302C31.0502 187.806 31.9549 189.174 33.1007 190.33C34.2465 191.485 35.6108 192.404 37.1153 193.034C38.6198 193.664 40.2348 193.992 41.8675 194H42.4449C44.0985 193.997 45.735 193.668 47.2599 193.033C48.7848 192.398 50.1679 191.469 51.3292 190.3C52.4905 189.131 53.407 187.744 54.0257 186.221C54.6444 184.698 54.9531 183.068 54.9338 181.426L54.3563 138.738C54.3509 138.083 54.0901 137.456 53.6288 136.988C53.1674 136.519 52.5414 136.247 51.8822 136.228ZM34.003 84.1573C32.7319 83.0862 31.711 81.7529 31.0111 80.2503C30.3111 78.7476 29.949 77.1116 29.9499 75.4559V58.3893C29.9499 56.8827 30.2486 55.3909 30.829 53.999C31.4094 52.607 32.2602 51.3423 33.3327 50.277C34.4052 49.2117 35.6784 48.3666 37.0797 47.7901C38.4809 47.2135 39.9828 46.9168 41.4995 46.9168C43.0162 46.9168 44.5181 47.2135 45.9194 47.7901C47.3206 48.3666 48.5939 49.2117 49.6664 50.277C50.7388 51.3423 51.5896 52.607 52.17 53.999C52.7504 55.3909 53.0492 56.8827 53.0492 58.3893V75.4559C53.0745 77.103 52.7378 78.7357 52.0624 80.2402C51.387 81.7448 50.3893 83.0848 49.1388 84.1668C48.1076 85.0465 47.2075 86.2404 46.4329 87.0599H36.6982C35.9309 86.2404 35.0321 85.0383 34.003 84.1573ZM39.0964 91.9767H43.979C43.449 93.7858 43.1699 95.6584 43.1495 97.5425V136.228H39.8496V97.2159C39.8504 95.4428 39.5967 93.6787 39.0964 91.9767ZM34.4872 141.145H49.4403L49.557 149.749H34.4872V141.145ZM47.8106 186.845C47.1118 187.554 46.2776 188.117 45.3567 188.501C44.4359 188.886 43.4471 189.084 42.4482 189.083H41.8708C40.8876 189.076 39.9156 188.876 39.011 188.494C38.1064 188.111 37.287 187.554 36.6004 186.856C35.9137 186.157 35.3734 185.329 35.0107 184.422C34.648 183.514 34.4701 182.544 34.4872 181.568V154.666H49.6255L49.9881 181.418C50.003 182.42 49.8183 183.416 49.4446 184.347C49.0709 185.279 48.5156 186.127 47.8106 186.845Z" fill="#F54748"/>
</svg>
