<svg viewBox="0 0 75 75" fill="none" xmlns="http://www.w3.org/2000/svg">
<path d="M24.2513 38.3516C24.2513 39.2188 23.9746 39.9395 23.4212 40.5137C22.8678 41.0879 22.1897 41.375 21.3867 41.375C20.7574 41.375 20.2528 41.1875 19.873 40.8125C19.4933 40.4375 19.3034 39.9219 19.3034 39.2656C19.3034 38.3984 19.5747 37.666 20.1172 37.0684C20.6597 36.4707 21.3325 36.1719 22.1354 36.1719C22.7431 36.1719 23.2476 36.3652 23.6491 36.752C24.0506 37.1387 24.2513 37.6719 24.2513 38.3516ZM49.8047 33.1133C49.8047 34.0977 49.566 34.7656 49.0885 35.1172C48.6111 35.4688 47.895 35.6445 46.9401 35.6445L45.8984 35.6797L46.4518 31.918C46.4952 31.6602 46.6363 31.5312 46.875 31.5312H47.4609C47.9384 31.5312 48.3181 31.5547 48.6003 31.6016C48.8824 31.6484 49.1536 31.7949 49.4141 32.041C49.6745 32.2871 49.8047 32.6445 49.8047 33.1133ZM61.2305 38.3516C61.2305 39.1953 60.9538 39.9102 60.4004 40.4961C59.847 41.082 59.1797 41.375 58.3984 41.375C57.7691 41.375 57.2591 41.1875 56.8685 40.8125C56.4779 40.4375 56.2826 39.9219 56.2826 39.2656C56.2826 38.3984 56.5538 37.666 57.0964 37.0684C57.6389 36.4707 58.3116 36.1719 59.1146 36.1719C59.7222 36.1719 60.2268 36.3652 60.6283 36.752C61.0297 37.1387 61.2305 37.6719 61.2305 38.3516ZM16.6992 32.3398C16.6992 30.957 16.2815 29.9551 15.446 29.334C14.6105 28.7129 13.52 28.4023 12.1745 28.4023H6.96615C6.55382 28.4023 6.32595 28.625 6.28255 29.0703L4.16667 43.4141C4.14497 43.5547 4.17752 43.6836 4.26432 43.8008C4.35113 43.918 4.45964 43.9766 4.58984 43.9766H7.0638C7.49783 43.9766 7.73654 43.7539 7.77995 43.3086L8.36588 39.4414C8.38759 39.2539 8.46354 39.1016 8.59375 38.9844C8.72396 38.8672 8.88672 38.791 9.08203 38.7559C9.27734 38.7207 9.46181 38.7031 9.63542 38.7031C9.80903 38.7031 10.0152 38.7148 10.2539 38.7383C10.4926 38.7617 10.6445 38.7734 10.7096 38.7734C12.576 38.7734 14.0408 38.2051 15.1042 37.0684C16.1675 35.9316 16.6992 34.3555 16.6992 32.3398ZM26.7578 43.3086L28.0924 34.1328C28.1141 33.9922 28.0816 33.8633 27.9948 33.7461C27.908 33.6289 27.7995 33.5703 27.6693 33.5703H25.1953C24.8915 33.5703 24.707 33.957 24.6419 34.7305C24.056 33.793 23.0252 33.3242 21.5495 33.3242C19.987 33.3242 18.6578 33.957 17.5618 35.2227C16.4659 36.4883 15.918 37.9766 15.918 39.6875C15.918 41.0703 16.2923 42.1719 17.041 42.9922C17.7897 43.8125 18.7934 44.2227 20.0521 44.2227C20.6597 44.2227 21.2891 44.082 21.9401 43.8008C22.5911 43.5195 23.112 43.1445 23.5026 42.6758C23.4158 42.957 23.3724 43.2031 23.3724 43.4141C23.3724 43.7891 23.5135 43.9766 23.7956 43.9766H26.0417C26.454 43.9766 26.6927 43.7539 26.7578 43.3086ZM41.3086 34.0625C41.3086 33.9453 41.2652 33.834 41.1784 33.7285C41.0916 33.623 40.9939 33.5703 40.8854 33.5703H38.3789C38.1402 33.5703 37.9449 33.6875 37.793 33.9219L34.3424 39.4062L32.9102 34.1328C32.8016 33.7578 32.5629 33.5703 32.194 33.5703H29.7526C29.6441 33.5703 29.5464 33.623 29.4596 33.7285C29.3728 33.834 29.3294 33.9453 29.3294 34.0625C29.3294 34.1094 29.541 34.8008 29.9642 36.1367C30.3874 37.4727 30.8431 38.9141 31.3314 40.4609C31.8197 42.0078 32.0746 42.8281 32.0964 42.9219C30.3168 45.5469 29.4271 46.9531 29.4271 47.1406C29.4271 47.4453 29.5681 47.5977 29.8503 47.5977H32.3568C32.5955 47.5977 32.7908 47.4805 32.9427 47.2461L41.2435 34.3086C41.2869 34.2617 41.3086 34.1797 41.3086 34.0625ZM53.6784 32.3398C53.6784 30.957 53.2606 29.9551 52.4251 29.334C51.5896 28.7129 50.4991 28.4023 49.1536 28.4023H43.9779C43.5438 28.4023 43.3051 28.625 43.2617 29.0703L41.1458 43.4141C41.1241 43.5547 41.1567 43.6836 41.2435 43.8008C41.3303 43.918 41.4388 43.9766 41.569 43.9766H44.2383C44.4987 43.9766 44.6723 43.8242 44.7591 43.5195L45.3451 39.4414C45.3668 39.2539 45.4427 39.1016 45.5729 38.9844C45.7031 38.8672 45.8659 38.791 46.0612 38.7559C46.2565 38.7207 46.441 38.7031 46.6146 38.7031C46.7882 38.7031 46.9944 38.7148 47.2331 38.7383C47.4718 38.7617 47.6237 38.7734 47.6888 38.7734C49.5551 38.7734 51.02 38.2051 52.0833 37.0684C53.1467 35.9316 53.6784 34.3555 53.6784 32.3398ZM63.737 43.3086L65.0716 34.1328C65.0933 33.9922 65.0608 33.8633 64.974 33.7461C64.8872 33.6289 64.7786 33.5703 64.6484 33.5703H62.1745C61.8707 33.5703 61.6862 33.957 61.6211 34.7305C61.0569 33.793 60.026 33.3242 58.5286 33.3242C56.9661 33.3242 55.6369 33.957 54.541 35.2227C53.4451 36.4883 52.8971 37.9766 52.8971 39.6875C52.8971 41.0703 53.2715 42.1719 54.0202 42.9922C54.7689 43.8125 55.7726 44.2227 57.0312 44.2227C57.6606 44.2227 58.3008 44.082 58.9518 43.8008C59.6029 43.5195 60.1128 43.1445 60.4818 42.6758C60.4818 42.6992 60.4601 42.8047 60.4167 42.9922C60.3733 43.1797 60.3516 43.3203 60.3516 43.4141C60.3516 43.7891 60.4926 43.9766 60.7747 43.9766H63.0208C63.4332 43.9766 63.6719 43.7539 63.737 43.3086ZM70.8333 28.9297V28.8945C70.8333 28.5664 70.6923 28.4023 70.4102 28.4023H68.0013C67.7626 28.4023 67.6215 28.5312 67.5781 28.7891L65.4622 43.4141L65.4297 43.4844C65.4297 43.6016 65.4731 43.7129 65.5599 43.8184C65.6467 43.9238 65.7552 43.9766 65.8854 43.9766H68.0339C68.4462 43.9766 68.674 43.7539 68.7174 43.3086L70.8333 28.9297ZM12.7604 33.6406C12.6519 34.4609 12.3698 35 11.9141 35.2578C11.4583 35.5156 10.8073 35.6445 9.96094 35.6445L8.88672 35.6797L9.4401 31.918C9.48351 31.6602 9.62457 31.5312 9.86328 31.5312H10.4818C11.3498 31.5312 11.9792 31.666 12.3698 31.9355C12.7604 32.2051 12.8906 32.7734 12.7604 33.6406ZM75 15.5V60.5C75 61.7188 74.5877 62.7734 73.763 63.6641C72.9384 64.5547 71.9618 65 70.8333 65H4.16667C3.03819 65 2.06163 64.5547 1.23698 63.6641C0.412326 62.7734 0 61.7188 0 60.5V15.5C0 14.2812 0.412326 13.2266 1.23698 12.3359C2.06163 11.4453 3.03819 11 4.16667 11H70.8333C71.9618 11 72.9384 11.4453 73.763 12.3359C74.5877 13.2266 75 14.2812 75 15.5Z" fill="#F54748"/>
</svg>
