<svg viewBox="0 0 148 88" fill="none" xmlns="http://www.w3.org/2000/svg">
<line x1="42.2656" y1="5.25916" x2="54.9923" y2="5.25916" stroke="#FC5455" stroke-width="10" stroke-linecap="round"/>
<path d="M55.3622 10.2319H54.8622V10.7319V15.5466V16.0466H55.3622H93.3542H93.72L93.8307 15.698L97.373 4.54706L97.373 4.54695C97.6468 3.68432 98.1709 2.93813 98.8668 2.41127C99.5623 1.88476 100.395 1.60314 101.246 1.60242H110.423C111.499 1.60242 112.537 2.05086 113.306 2.85756C114.075 3.66508 114.511 4.76524 114.511 5.91714C114.511 7.06903 114.075 8.16919 113.306 8.97671C112.537 9.78341 111.499 10.2319 110.423 10.2319H104.55H104.184L104.073 10.5808L101.219 19.5843L101.151 19.7984L101.266 19.9914L108.672 32.4134L108.897 32.7907L109.3 32.6162C115.562 29.9066 122.563 29.7643 128.919 32.217C135.277 34.6701 140.53 39.5422 143.633 45.8752C146.736 52.2087 147.459 59.5366 145.657 66.405C143.855 73.2731 139.661 79.174 133.915 82.9429C128.169 86.7112 121.287 88.0753 114.632 86.7688C107.976 85.4623 102.025 81.5785 97.961 75.8792C93.897 70.1793 92.0197 63.0816 92.7058 55.993C93.3919 48.9047 96.5903 42.3503 101.661 37.6268L101.956 37.3516L101.749 37.0049L97.0873 29.1858L96.6576 28.4651L96.2283 29.186L77.1772 61.175C76.8072 61.7963 76.2943 62.3059 75.6888 62.658C75.0835 63.01 74.4047 63.1938 73.7158 63.1938H54.986H54.5601L54.4923 63.6142C53.5563 69.4217 50.9238 74.7771 46.9631 78.9407C43.0026 83.1039 37.9103 85.8695 32.3921 86.8594C26.8741 87.8493 21.1986 87.0156 16.1497 84.4719C11.1004 81.9279 6.92509 77.7979 4.20504 72.6493C1.48487 67.5005 0.355971 61.5898 0.97653 55.7355C1.59708 49.8814 3.93591 44.3773 7.66577 39.984C11.3954 35.5909 16.3307 32.5263 21.7869 31.2093C27.2428 29.8925 32.954 30.3871 38.1316 32.6259L38.5349 32.8003L38.7597 32.4228L46.615 19.2305L46.6854 19.1122V18.9747V10.7319V10.2319H46.1854H41.597C40.5207 10.2319 39.4832 9.78341 38.7145 8.97671C37.9449 8.16919 37.5086 7.06903 37.5086 5.91714C37.5086 4.76524 37.9449 3.66508 38.7145 2.85756C39.4832 2.05086 40.5207 1.60242 41.597 1.60242H55.3622C56.4385 1.60242 57.476 2.05086 58.2447 2.85756C59.0143 3.66508 59.4506 4.76524 59.4506 5.91714C59.4506 7.06903 59.0143 8.16919 58.2447 8.97671C57.476 9.78341 56.4385 10.2319 55.3622 10.2319ZM51.2034 29.186L50.7735 28.4642L50.3441 29.1863L45.6822 37.0246L45.4762 37.3712L45.7711 37.646C50.278 41.8455 53.4364 47.6188 54.4924 54.1442L54.5604 54.5643H54.986H65.4384H66.3181L65.8679 53.8085L51.2034 29.186ZM73.2863 50.0543L73.7158 50.7756L74.1454 50.0543L88.81 25.4319L89.2601 24.676H88.3804H59.0513H58.1715L58.6217 25.4319L73.2863 50.0543ZM45.6073 54.5643H46.2454L46.0927 53.9447C45.2926 50.6976 43.7155 47.7162 41.5085 45.2833L41.0544 44.7828L40.7086 45.3635L35.6797 53.8085L35.2296 54.5643H36.1093H45.6073ZM46.0927 63.8134L46.2455 63.1938H45.6073L27.8318 63.1938C27.1069 63.1938 26.3936 62.9902 25.7658 62.6022C25.1378 62.214 24.6172 61.6545 24.2607 60.9795C23.9041 60.3044 23.7254 59.5397 23.7448 58.7652C23.7642 57.9906 23.9808 57.2372 24.3704 56.5831L33.795 40.762L33.3654 40.5061L33.5227 40.0315C29.9225 38.8384 26.0633 38.8058 22.4451 39.9378C18.8272 41.0696 15.6198 43.3128 13.2352 46.3732C10.8507 49.4334 9.39764 53.1708 9.0605 57.1021C8.72336 61.0334 9.5173 64.9816 11.3416 68.4371C13.1661 71.8929 15.9384 74.699 19.3037 76.4895C22.6694 78.2801 26.4716 78.9714 30.2181 78.4718C33.9645 77.9723 37.4789 76.3056 40.308 73.6912C43.1368 71.077 45.1505 67.6356 46.0927 63.8134ZM106.794 45.4817V44.3119L105.923 45.2742C102.766 48.7629 100.933 53.3359 100.762 58.135C100.592 62.9341 102.095 67.6368 104.994 71.3616C107.894 75.0869 111.994 77.5796 116.528 78.3651C121.062 79.1506 125.712 78.1733 129.605 75.6204C133.497 73.0679 136.362 69.1175 137.671 64.5141C138.98 59.9109 138.645 54.9649 136.726 50.6015C134.808 46.2378 131.435 42.7518 127.235 40.8033C123.035 38.8544 118.299 38.5795 113.918 40.0315L113.328 40.2272L113.646 40.7618L123.061 56.5829L123.061 56.5831C123.348 57.0642 123.542 57.6009 123.632 58.1627C123.721 58.7245 123.705 59.2994 123.582 59.8543C123.46 60.4091 123.236 60.9321 122.922 61.3935C122.609 61.855 122.212 62.2455 121.758 62.5438C121.303 62.8421 120.798 63.0427 120.271 63.1352C119.745 63.2277 119.206 63.2105 118.686 63.0845C118.165 62.9585 117.672 62.7259 117.235 62.3987C116.798 62.0715 116.425 61.656 116.139 61.175L106.794 45.4817Z" stroke="#0E204B"/>
<path d="M143.508 58.8376C143.508 72.7121 132.806 83.8349 119.756 83.8349C106.705 83.8349 96.0039 72.7121 96.0039 58.8376C96.0039 44.9631 106.705 33.8403 119.756 33.8403C132.806 33.8403 143.508 44.9631 143.508 58.8376Z" stroke="#FC5455" stroke-width="3"/>
<path d="M51.7595 58.8376C51.7595 72.7121 41.0582 83.8349 28.0077 83.8349C14.9572 83.8349 4.25586 72.7121 4.25586 58.8376C4.25586 44.9631 14.9572 33.8403 28.0077 33.8403C41.0582 33.8403 51.7595 44.9631 51.7595 58.8376Z" stroke="#FC5455" stroke-width="3"/>
</svg>
