<svg viewBox="0 0 216 217" fill="none" xmlns="http://www.w3.org/2000/svg">
<path d="M150.623 126.886C124.136 126.886 104.344 146.852 104.344 164.704C104.344 179.002 116.093 183.415 130.512 184.778C130.372 186.312 130.224 187.827 130.086 189.239C129.594 194.232 129.087 199.392 128.876 204.289C128.71 208.171 131.407 211.444 135.017 211.737C139.872 212.13 145.124 212.329 150.623 212.329C156.124 212.329 161.376 212.13 166.227 211.737C169.841 211.446 172.538 208.173 172.37 204.287C172.159 199.395 171.652 194.234 171.163 189.246C171.024 187.832 170.875 186.315 170.735 184.778C185.154 183.415 196.903 179.002 196.903 164.704C196.903 146.852 177.111 126.886 150.623 126.886ZM165.857 207.171C161.127 207.556 156.001 207.75 150.623 207.75C145.247 207.75 140.121 207.556 135.389 207.171C134.27 207.082 133.408 205.874 133.467 204.484C133.673 199.714 134.173 194.616 134.658 189.684C134.818 188.051 134.961 186.549 135.093 185.11C140.189 185.385 145.486 185.389 150.623 185.389C155.76 185.389 161.057 185.385 166.154 185.11C166.286 186.551 166.43 188.055 166.59 189.691C167.073 194.619 167.573 199.717 167.78 204.484C167.84 205.877 166.979 207.082 165.857 207.171ZM150.623 180.81C126.215 180.81 108.939 179.654 108.939 164.704C108.939 149.332 127.146 131.465 150.623 131.465C174.1 131.465 192.308 149.332 192.308 164.704C192.308 179.654 175.031 180.81 150.623 180.81ZM170.889 175.119C170.992 176.38 170.052 177.487 168.789 177.59C165.015 177.903 160.515 178.084 155.029 178.144C155.02 178.144 155.014 178.144 155.005 178.144C153.746 178.144 152.721 177.136 152.707 175.879C152.694 174.616 153.71 173.579 154.98 173.565C160.353 173.507 164.746 173.33 168.408 173.028C169.705 172.897 170.784 173.862 170.889 175.119ZM181.631 172.881C181.995 174.093 181.306 175.367 180.09 175.732C178.766 176.127 177.27 176.47 175.639 176.751C175.506 176.774 175.374 176.785 175.244 176.785C174.147 176.785 173.175 176 172.982 174.887C172.767 173.639 173.604 172.454 174.854 172.239C176.305 171.989 177.622 171.689 178.771 171.345C179.987 170.985 181.268 171.671 181.631 172.881ZM91.2203 85.9535C90.1221 76.4486 79.7557 66.2896 68.0544 67.4668C67.0403 67.5809 66.0408 67.7184 65.0021 67.8872C61.6367 68.4827 58.5246 70.0317 55.884 72.3409C52.6364 71.4724 49.2326 71.1992 45.8276 71.5017L40.25 55.2508C39.5421 53.1502 37.2425 52.0065 35.1178 52.7041C33.4958 53.234 31.8602 53.7349 30.219 54.2044C28.091 54.8115 26.8268 57.0362 27.4034 59.1738L31.9485 75.7507C28.9605 77.4056 26.296 79.5368 24.0968 82.0749C20.6085 81.644 17.1546 82.1086 14.016 83.5074C13.0917 83.9356 12.1875 84.3794 11.2576 84.8669C0.929359 90.4511 -1.91323 104.637 2.52004 113.09C8.95345 125.734 14.4793 138.535 18.925 151.081C20.4068 155.658 24.4004 159.769 29.6077 162.086C32.5265 163.383 35.5699 164.031 38.5909 164.031C40.7855 164.031 42.9675 163.688 45.0788 163.002C49.2727 165.416 53.9845 166.676 58.6595 166.676C60.8997 166.676 63.1309 166.39 65.2892 165.806C66.5333 165.455 67.7572 165.082 69.0124 164.666C75.5157 162.432 81.0099 157.47 84.1346 151.04C89.2022 149.579 93.5071 146.294 96.413 141.623C99.4172 136.793 100.403 131.156 99.0683 126.602C95.6603 113.676 93.0185 99.9896 91.2203 85.9535ZM36.0669 57.2117L41.2338 72.2671C41.0791 72.306 40.9225 72.3254 40.7683 72.3669C39.3728 72.7582 37.993 73.1819 36.6233 73.6358C36.6154 73.638 36.6065 73.6414 36.5975 73.6447C36.455 73.6939 36.3224 73.7617 36.181 73.8128L31.9735 58.4661C33.3432 58.0692 34.7084 57.65 36.0669 57.2117ZM31.4799 157.902C27.5043 156.136 24.369 152.983 23.2775 149.616C18.7466 136.824 13.1411 123.838 6.60557 110.994C3.19984 104.501 5.49276 93.1935 13.4215 88.9061C14.2584 88.4689 15.0952 88.0564 15.922 87.673C17.4966 86.9709 19.195 86.5986 20.9458 86.5177C20.4143 87.4478 19.9257 88.4045 19.5038 89.3969C17.0897 95.0728 16.9091 100.904 18.9788 105.33C24.9994 119.321 30.1585 134.345 34.3034 149.951C35.1588 153.364 37.2306 156.621 40.167 159.371C37.274 159.649 34.3057 159.158 31.4799 157.902ZM80.0923 148.876C77.5122 154.3 72.9274 158.477 67.5395 160.328C66.3751 160.713 65.2163 161.068 64.0631 161.395C58.5473 162.884 52.4101 161.996 47.2263 158.964C42.8761 156.42 39.7115 152.635 38.7535 148.811C34.5435 132.958 29.3104 117.723 23.1731 103.461C21.6453 100.192 21.855 95.6027 23.734 91.1834C26.3467 85.039 31.5775 80.2262 38.0872 77.9768C39.3829 77.5464 40.6897 77.1462 41.9876 76.7817C48.6398 74.9963 55.6857 76.0484 61.3204 79.6761C65.3655 82.281 68.1262 85.9602 68.7152 89.5858C71.661 104.753 75.917 120.29 81.3778 135.794C82.7307 139.449 82.2506 144.339 80.0923 148.876ZM92.507 139.21C90.8786 141.829 88.7004 143.893 86.1535 145.283C87.0341 141.366 86.9135 137.52 85.7012 134.244C80.3267 118.982 76.129 103.664 73.2393 88.7853C72.4462 83.8987 69.0102 79.1764 63.813 75.8292C62.9032 75.2435 61.9584 74.725 60.9928 74.2523C62.4823 73.3408 64.0896 72.6996 65.7738 72.4015C66.7049 72.2506 67.6304 72.1221 68.539 72.0203C69.0012 71.9745 69.46 71.9521 69.9177 71.9521C78.3737 71.9521 85.8571 79.5733 86.6592 86.5047C88.4854 100.765 91.1653 114.648 94.6406 127.825C95.6177 131.161 94.801 135.523 92.507 139.21ZM162.034 93.426C161.655 92.2197 162.33 90.9352 163.539 90.5573C167.037 89.4684 170.259 87.8641 173.119 85.7892C174.145 85.0424 175.585 85.2704 176.33 86.2934C177.077 87.3163 176.85 88.7473 175.825 89.4919C172.558 91.8609 168.886 93.6898 164.912 94.9285C164.683 94.999 164.452 95.0336 164.226 95.0336C163.248 95.0336 162.341 94.4053 162.034 93.426ZM178.021 84.7852C177.077 83.9401 176.998 82.4923 177.846 81.5521C178.656 80.6532 179.412 79.703 180.097 78.7248C180.821 77.6884 182.253 77.4279 183.294 78.1557C184.335 78.8779 184.591 80.3056 183.866 81.343C183.076 82.4744 182.199 83.5745 181.266 84.6108C180.812 85.115 180.184 85.3711 179.556 85.3711C179.009 85.3711 178.459 85.1777 178.021 84.7852ZM138.416 102.759C143.125 104.119 147.915 104.793 152.653 104.793C160.134 104.793 167.481 103.112 174.154 99.795C185.118 94.3438 192.961 85.1363 196.239 73.8683C199.408 62.9701 197.701 51.6992 191.496 42.0172C191.448 40.4192 191.012 38.8641 190.128 37.5937C184.84 29.9915 177.178 23.8181 168.506 20.1601L170.373 11.7139C170.833 9.63003 169.669 7.55844 167.723 6.99499L165.033 6.21688C163.095 5.66573 160.993 6.78816 160.264 8.79379L157.309 16.927C148.007 15.3931 138.232 16.5301 129.684 20.1356C128.254 20.7391 127.051 21.8209 126.155 23.1441C115.716 28.0194 108.227 36.6334 105.057 47.5313C98.3133 70.7224 113.277 95.4965 138.416 102.759ZM131.474 24.3525C139.39 21.0109 148.48 20.0081 157.089 21.5352C158.958 21.8539 160.807 20.7493 161.484 18.8834L164.419 10.8072L165.781 11.2019L163.927 19.59C163.499 21.5319 164.466 23.4593 166.223 24.1736C174.306 27.4683 181.454 33.161 186.352 40.2041C186.354 40.2041 186.354 40.2053 186.354 40.2053C186.807 40.8582 187.014 41.7067 186.944 42.5809C186.762 42.534 186.572 42.4535 186.441 42.3383L175.298 32.5304C174.248 31.6048 172.771 31.0905 171.376 31.0905C170.775 31.0905 170.187 31.1855 169.655 31.3834L158.493 35.5545C158.235 35.6585 157.677 35.4886 157.511 35.2706L150.316 25.7969C149.176 24.2966 146.917 23.4358 144.931 23.7578L130.254 26.11C130.088 26.1379 129.881 26.1044 129.7 26.0462C130.11 25.2715 130.738 24.6633 131.474 24.3525ZM109.471 48.8058C112.007 40.0855 117.683 33.0134 125.601 28.5565C125.667 28.6442 125.713 28.7389 125.787 28.8233C126.983 30.1861 129.114 30.9295 130.985 30.631L145.663 28.2788C145.997 28.2218 146.52 28.4241 146.65 28.5594L153.845 38.0342C155.243 39.8755 157.93 40.6536 160.109 39.843L171.253 35.6775C171.441 35.6238 172 35.7368 172.255 35.9615L183.399 45.7694C184.442 46.6906 185.923 47.2104 187.328 47.2104C187.819 47.2104 188.304 47.1467 188.757 47.0137C188.866 46.9817 188.956 46.9259 189.059 46.8865C193.359 54.8725 194.361 63.8741 191.824 72.5938C188.909 82.6186 181.905 90.8245 172.103 95.6966C162.238 100.602 150.726 101.549 139.695 98.3607C116.99 91.8016 103.432 69.572 109.471 48.8058ZM214.358 186.185L210.884 188.199L212.904 191.66C213.541 192.754 213.171 194.156 212.074 194.791C211.711 195.001 211.314 195.102 210.921 195.102C210.129 195.102 209.359 194.695 208.933 193.963L206.913 190.502L203.439 192.517C203.075 192.727 202.678 192.828 202.286 192.828C201.494 192.828 200.724 192.421 200.298 191.69C199.661 190.596 200.031 189.194 201.128 188.559L204.602 186.545L202.582 183.083C201.942 181.99 202.315 180.588 203.412 179.953C204.507 179.316 205.913 179.685 206.553 180.78L208.573 184.242L212.047 182.227C213.142 181.59 214.551 181.961 215.188 183.054C215.825 184.148 215.455 185.55 214.358 186.185ZM60.1425 43.4295C59.5042 42.3361 59.8755 40.9353 60.9726 40.2992L65.3319 37.7713L62.7955 33.427C62.1572 32.3337 62.5285 30.9329 63.6256 30.2967C64.7227 29.6595 66.1283 30.0307 66.7666 31.124L69.3031 35.4684L73.6622 32.9407C74.7582 32.3046 76.1649 32.6746 76.8032 33.768C77.4415 34.8614 77.0702 36.2622 75.9731 36.8983L71.6138 39.4262L74.1502 43.7705C74.7885 44.8638 74.4172 46.2646 73.3201 46.9008C72.9566 47.112 72.5595 47.2115 72.1669 47.2115C71.376 47.2115 70.6054 46.8046 70.1791 46.0735L67.6426 41.729L63.2835 44.2568C62.92 44.4681 62.5229 44.5676 62.1303 44.5676C61.3395 44.5676 60.5688 44.1606 60.1425 43.4295ZM67.9793 189.653C67.7067 190.679 66.7767 191.356 65.7593 191.356C65.5652 191.356 65.3678 191.332 65.1715 191.28L61.3051 190.262L60.2827 194.118C60.0101 195.144 59.0802 195.822 58.0627 195.822C57.8687 195.822 57.6712 195.797 57.4749 195.746C56.2477 195.424 55.5163 194.169 55.8405 192.946L56.8624 189.092L52.9957 188.074C51.7684 187.752 51.037 186.498 51.3612 185.275C51.6854 184.052 52.9441 183.327 54.169 183.647L58.0364 184.665L59.0589 180.81C59.3831 179.586 60.6406 178.86 61.8667 179.182C63.0939 179.504 63.8253 180.758 63.5011 181.981L62.479 185.835L66.3448 186.853C67.5721 187.175 68.3035 188.43 67.9793 189.653ZM208.284 29.3175C207.211 27.481 207.836 25.126 209.679 24.0574C211.521 22.9886 213.884 23.611 214.957 25.4476C216.029 27.2841 215.404 29.6391 213.562 30.7077C211.719 31.7765 209.356 31.1539 208.284 29.3175ZM117.7 109.622C118.773 111.458 118.148 113.813 116.305 114.882C114.463 115.95 112.099 115.328 111.027 113.492C109.955 111.655 110.579 109.3 112.422 108.231C114.265 107.163 116.628 107.785 117.7 109.622ZM102.394 6.44956C101.322 4.61302 101.946 2.25803 103.789 1.18925C105.632 0.12062 107.995 0.743047 109.067 2.57958C110.14 4.41612 109.515 6.77112 107.672 7.83975C105.83 8.90839 103.467 8.28596 102.394 6.44956ZM14.9264 162.465C15.9987 164.301 15.3741 166.656 13.5314 167.725C11.6886 168.794 9.3256 168.171 8.25318 166.335C7.1809 164.498 7.80545 162.143 9.64825 161.075C11.4909 160.006 13.8541 160.628 14.9264 162.465ZM203.401 115.379L199.513 114.355L198.485 118.23C198.213 119.257 197.282 119.934 196.266 119.934C196.071 119.934 195.873 119.909 195.676 119.858C194.449 119.534 193.717 118.282 194.043 117.059L195.071 113.184L191.182 112.16C189.957 111.838 189.223 110.585 189.549 109.363C189.872 108.141 191.133 107.416 192.358 107.734L196.245 108.758L197.273 104.883C197.596 103.66 198.862 102.94 200.082 103.255C201.31 103.578 202.041 104.831 201.716 106.055L200.688 109.928L204.576 110.952C205.801 111.275 206.535 112.529 206.21 113.752C205.938 114.778 205.007 115.456 203.991 115.456C203.795 115.456 203.598 115.431 203.401 115.379ZM113.839 210.717C114.912 212.554 114.287 214.909 112.444 215.977C110.602 217.046 108.238 216.424 107.166 214.587C106.094 212.751 106.718 210.395 108.561 209.327C110.404 208.258 112.767 208.881 113.839 210.717Z" fill="#FC5455"/>
</svg>
