<svg viewBox="0 0 148 88" fill="none" xmlns="http://www.w3.org/2000/svg">
<line x1="42.2656" y1="5.32977" x2="54.9923" y2="5.32977" stroke="#ECCF35" stroke-width="10" stroke-linecap="round"/>
<path d="M55.3622 10.3021H54.8622V10.8021V15.6132V16.1132H55.3622H93.3542H93.7199L93.8307 15.7647L97.373 4.62225L97.373 4.62214C97.6468 3.7603 98.1708 3.01472 98.8667 2.48827C99.5621 1.96216 100.395 1.68071 101.246 1.67999H110.423C111.5 1.67999 112.537 2.12815 113.306 2.93421C114.075 3.74107 114.511 4.84025 114.511 5.99106C114.511 7.14188 114.075 8.24106 113.306 9.04792C112.537 9.85398 111.5 10.3021 110.423 10.3021H104.55H104.184L104.073 10.6509L101.219 19.6477L101.151 19.862L101.267 20.055L108.672 32.4676L108.897 32.8446L109.3 32.6703C115.562 29.9628 122.563 29.8206 128.92 32.2715C135.277 34.7226 140.53 39.5911 143.633 45.9192C146.736 52.2477 147.459 59.5699 145.657 66.4329C143.855 73.2957 139.661 79.192 133.915 82.9581C128.169 86.7236 121.287 88.0866 114.632 86.7811C107.976 85.4756 102.024 81.5947 97.9609 75.8998C93.8969 70.2043 92.0198 63.1121 92.7058 56.0291C93.3918 48.9463 96.5902 42.397 101.66 37.6771L101.956 37.4019L101.749 37.055L97.0872 29.2418L96.6576 28.5217L96.2284 29.242L77.1773 61.2067C76.8073 61.8275 76.2944 62.3367 75.6889 62.6885C75.0836 63.0403 74.4047 63.2239 73.7158 63.2239H54.986H54.5602L54.4923 63.6443C53.5563 69.4473 50.9239 74.7985 46.9632 78.9589C43.0028 83.119 37.9104 85.8825 32.3921 86.8717C26.8741 87.8608 21.1985 87.0278 16.1496 84.4859C11.1003 81.9438 6.92496 77.817 4.20497 72.6724C1.48485 67.5276 0.355983 61.6214 0.976526 55.7718C1.59706 49.9223 3.93583 44.4224 7.66565 40.0325C11.3952 35.6428 16.3305 32.5805 21.7868 31.2645C27.2428 29.9486 32.954 30.4429 38.1317 32.68L38.5348 32.8542L38.7596 32.477L46.6149 19.2946L46.6854 19.1764V19.0387V10.8021V10.3021H46.1854H41.597C40.5205 10.3021 39.4831 9.85398 38.7143 9.04792C37.9448 8.24106 37.5086 7.14188 37.5086 5.99106C37.5086 4.84025 37.9448 3.74107 38.7143 2.93421C39.4831 2.12815 40.5205 1.67999 41.597 1.67999H55.3622C56.4387 1.67999 57.4761 2.12815 58.2449 2.93421C59.0144 3.74107 59.4506 4.84025 59.4506 5.99106C59.4506 7.14188 59.0144 8.24106 58.2449 9.04792C57.4761 9.85398 56.4387 10.3021 55.3622 10.3021ZM51.2033 29.242L50.7735 28.5209L50.3442 29.2422L45.6823 37.0747L45.476 37.4214L45.7713 37.6963C50.2781 41.8926 53.4364 47.6614 54.4924 54.1817L54.5604 54.6018H54.986H65.4384H66.3184L65.8679 53.8458L51.2033 29.242ZM73.2863 50.0952L73.7158 50.8158L74.1453 50.0952L88.8099 25.4913L89.2605 24.7354H88.3804H59.0513H58.1712L58.6218 25.4913L73.2863 50.0952ZM45.6073 54.6018H46.2455L46.0927 53.9821C45.2926 50.7374 43.7154 47.7581 41.5083 45.3271L41.0544 44.827L40.7086 45.4072L35.6797 53.8458L35.2292 54.6018H36.1093H45.6073ZM46.0927 63.8437L46.2456 63.2239H45.6073H27.8318C27.1068 63.2239 26.3934 63.0205 25.7656 62.6328C25.1376 62.2449 24.6171 61.6859 24.2606 61.0115C23.904 60.3369 23.7254 59.5729 23.7448 58.7991C23.7642 58.0253 23.9808 57.2725 24.3703 56.619L33.7949 40.8098L33.3654 40.5538L33.5226 40.0792C29.9224 38.8871 26.0633 38.8544 22.4452 39.9855C18.8274 41.1165 15.62 43.358 13.2353 46.4162C10.8508 49.474 9.39766 53.2088 9.0605 57.1372C8.72335 61.0657 9.51733 65.011 11.3417 68.464C13.1662 71.9172 15.9386 74.7213 19.3039 76.5104C22.6695 78.2997 26.4716 78.9903 30.2181 78.4912C33.9644 77.992 37.4787 76.3267 40.3078 73.7142C43.1367 71.102 45.1505 67.6631 46.0927 63.8437ZM106.794 45.5255V44.3565L105.923 45.3179C102.766 48.8041 100.933 53.3737 100.762 58.1694C100.592 62.965 102.095 67.6643 104.994 71.3863C107.895 75.1089 111.994 77.5996 116.528 78.3845C121.062 79.1694 125.712 78.1929 129.604 75.6419C133.496 73.0914 136.362 69.144 137.671 64.5438C138.98 59.944 138.645 55.0015 136.726 50.6413C134.807 46.2807 131.435 42.7975 127.235 40.8504C123.035 38.903 118.299 38.6284 113.918 40.0792L113.327 40.2748L113.646 40.8097L123.061 56.6188L123.061 56.619C123.348 57.0997 123.542 57.6359 123.632 58.1972C123.721 58.7585 123.705 59.3329 123.582 59.8872C123.461 60.4415 123.236 60.964 122.922 61.4251C122.609 61.8861 122.213 62.2763 121.758 62.5744C121.303 62.8725 120.798 63.073 120.271 63.1654C119.745 63.2578 119.206 63.2407 118.686 63.1148C118.165 62.9888 117.672 62.7564 117.235 62.4295C116.798 62.1025 116.425 61.6873 116.138 61.2067L106.794 45.5255Z" stroke="#0E204B"/>
<path d="M51.7595 58.8714C51.7595 72.7337 41.0593 83.8487 28.0077 83.8487C14.9561 83.8487 4.25586 72.7337 4.25586 58.8714C4.25586 45.0091 14.9561 33.8942 28.0077 33.8942C41.0593 33.8942 51.7595 45.0091 51.7595 58.8714Z" stroke="#ECCF35" stroke-width="3"/>
<path d="M143.508 58.8714C143.508 72.7337 132.807 83.8487 119.756 83.8487C106.704 83.8487 96.0039 72.7337 96.0039 58.8714C96.0039 45.0091 106.704 33.8942 119.756 33.8942C132.807 33.8942 143.508 45.0091 143.508 58.8714Z" stroke="#ECCF35" stroke-width="3"/>
</svg>
